<?xml version="1.0" encoding="utf-8"?>
<!-- Svg Vector Icons : http://www.onlinewebfonts.com/icon -->
<!DOCTYPE svg PUBLIC "-//W3C//DTD SVG 1.1//EN" "http://www.w3.org/Graphics/SVG/1.1/DTD/svg11.dtd">
<svg version="1.1" xmlns="http://www.w3.org/2000/svg" xmlns:xlink="http://www.w3.org/1999/xlink" x="0px" y="0px" viewBox="0 0 256 256" enable-background="new 0 0 256 256" xml:space="preserve">
<metadata> Svg Vector Icons : http://www.onlinewebfonts.com/icon </metadata>
<g><g><path fill="#000000" d="M239.1,201.4l-106.7,44.5c-1.3,0.6-2.8,0.9-4.4,0.9c-1.6,0-3-0.3-4.4-0.9L16.9,201.4c-4-1.7-6.9-5.6-6.9-10.3V20.3c0-6.2,4.9-11.1,11.1-11.1c1.5,0,2.9,0.3,4.2,0.8l0,0h0c0,0,0.1,0,0.1,0L128,52.8L230.6,10c0,0,0.1,0,0.1,0h0l0,0c1.3-0.6,2.7-0.8,4.2-0.8c6.1,0,11.1,5,11.1,11.1v170.8C246,195.8,243.1,199.8,239.1,201.4z M116.9,219V72.3L32.1,37v146.7L116.9,219z M223.9,37l-84.8,35.4V219l84.8-35.3V37L223.9,37z"/></g></g>
</svg>