<?xml version="1.0" encoding="UTF-8" standalone="no"?>
<!DOCTYPE svg PUBLIC "-//W3C//DTD SVG 1.1//EN" "http://www.w3.org/Graphics/SVG/1.1/DTD/svg11.dtd">
<svg width="100%" height="100%" viewBox="0 0 256 256" version="1.1" xmlns="http://www.w3.org/2000/svg" xmlns:xlink="http://www.w3.org/1999/xlink" xml:space="preserve" xmlns:serif="http://www.serif.com/" style="fill-rule:evenodd;clip-rule:evenodd;stroke-linejoin:round;stroke-miterlimit:2;">
    <g>
        <g>
            <g>
                <path d="M18.3,20.2C17.1,21.4 17.1,21.6 18.1,22.9C18.6,23.6 19.5,24 21,24.2C23.1,24.4 25.1,25.7 25.1,26.6C25.1,26.8 22.8,27 19.9,27C15.4,27 14.4,27.1 12.8,28.1C10,29.7 9.5,30.7 11.1,31.9C13.5,33.9 15.2,34.3 21.1,34.3L26.7,34.3L26.7,42.5L20.9,42.5C16,42.5 14.7,42.6 13.2,43.4C9.4,45.3 9.4,46.7 13.2,48.6C15,49.6 16,49.7 20.8,49.7L26,49.7L26,58L20,58.2C14.4,58.3 13.9,58.4 12,59.7C10.9,60.4 10,61.4 10,61.7C10,62 10.9,63 12,63.7C13.9,65 14.4,65.1 20.3,65.2C23.7,65.3 26.655,65.112 26.655,65.312C26.655,65.512 27.2,67.1 28,68.3C29.8,71.1 33.4,73 36.7,73C37.9,73 39.2,72.8 39.5,72.5C39.9,72.1 40.5,72.1 41.8,72.5C42.8,72.8 44.5,72.9 45.8,72.8C48.8,72.4 49,72.4 52.6,72.8C54.7,73 55.9,72.9 56.3,72.5C56.8,72.1 57.4,72.1 58.5,72.5C60.8,73.3 64.1,73.2 65,72.3C66.9,70.4 65.3,68.2 62.1,68.2C60.4,68.2 59.7,67.9 58.4,66.7L56.8,65.3L62.5,65.3C67.7,65.3 83.8,64.2 87.6,63.6C88.7,63.5 90.4,62.2 93.1,59.8C95.7,57.5 97.9,55.9 99.3,55.4C101.1,54.8 106.4,54.7 137.2,54.7C180.2,54.7 190,55.1 205.2,57.1C211.5,57.9 217.6,58.8 219,59.1C220.3,59.3 225.6,59.5 230.6,59.5C240.7,59.5 242,59.2 243.3,56.6C244.5,54.4 246,48.2 246,46C246,43.4 244.2,36.9 243,35.2C241.5,33 240.2,32.8 229.2,33C220.7,33.1 216.9,33.5 206.4,34.9C189.9,37.3 175.9,37.8 132.3,37.6C95.1,37.5 99.1,38 92.6,32.2C90.7,30.5 88.6,28.9 88,28.8C85.4,28.1 68.6,27 62.7,27L56.2,27L55.4,25.3C53.3,20.9 46.7,17.8 43.8,19.9C43,20.5 42.6,20.5 41,19.9C38.5,19 36.8,19 35.5,19.9C34.6,20.5 34.2,20.5 32.6,19.9C30.1,19 27.8,19 26.9,19.9C26.2,20.5 25.9,20.5 24.1,19.9C21.3,19 19.4,19 18.3,20.2ZM28.805,28.7C31.305,30.9 30.339,29.855 29.639,45.855C29.139,60.955 30.79,66.183 31.99,68.483C32.39,69.383 36,68.3 35.7,68.3C34.5,68.3 32.6,67 31.7,65.5C30.7,63.9 30.7,63.4 30.9,45.6C31,28.7 31,27.1 30.2,25.6C29.5,24.2 29.5,24 30.1,24C30.5,24.1 27.905,27.8 28.805,28.7ZM40.4,25C41.2,25.5 37.084,25.537 37.584,26.537C38.384,28.237 38.307,30.845 38.007,46.645C37.707,62.145 39.745,65.54 40.445,67.24C40.845,68.34 44.4,68 44.2,68.2C43.7,68.6 41.5,67.1 40.4,65.7C39.4,64.3 39.4,64 39.6,46.3C39.7,30.5 39.6,28 39,26.3C38.6,25.3 38.2,24.4 38.2,24.3C38.2,23.9 38.9,24.1 40.4,25ZM47.1,25.9C49.5,28 46.474,28.465 46.074,46.965C45.774,63.665 47.325,64.753 48.225,66.953C49.125,69.053 53,68.3 52.1,68.3C50.7,68.3 48.4,65.8 47.8,63.7C47.5,62.4 47.5,57.9 47.8,48.2C48.4,33.3 48.2,28.6 47.1,25.9C46.4,24.1 46.4,24.1 47.4,24.4C48.1,24.5 46.6,25.5 47.1,25.9ZM63.4,34.9C64,35.2 64.9,36.1 65.3,36.7C65.9,37.8 65.9,38.2 65.3,39.6C64.5,41.5 62.4,42.5 59,42.5L26.7,42.5L26.7,34.3L59.4,34.3C60.9,34.3 62.7,34.6 63.4,34.9ZM63.4,50.6C65.2,51.6 66,53 65.6,54.8C65.1,57 62.9,58.1 59.2,58.1L26,58L26,49.7L59,49.9C60.7,49.8 62.6,50.2 63.4,50.6Z" style="fill:rgb(140,124,115);fill-rule:nonzero;"/>
                <path d="M18.3,20.2C17.1,21.4 17.1,21.6 18.1,22.9C18.6,23.6 19.5,24 21,24.2C23.1,24.4 26.65,26.94 26.65,27.84C26.65,28.04 27.243,32.75 27.243,32.75L26.775,45.98C26.775,45.98 26.035,61.547 26.035,61.747C26.035,61.947 27.2,67.1 28,68.3C29.8,71.1 33.4,73 36.7,73C37.9,73 39.2,72.8 39.5,72.5C39.9,72.1 40.5,72.1 41.8,72.5C42.8,72.8 44.5,72.9 45.8,72.8C48.8,72.4 49,72.4 52.6,72.8C54.7,73 55.9,72.9 56.3,72.5C56.8,72.1 57.4,72.1 58.5,72.5C60.8,73.3 64.1,73.2 65,72.3C66.9,70.4 65.3,68.2 62.1,68.2C60.4,68.2 59.7,67.9 58.4,66.7L56.8,65.3L56.2,27L55.4,25.3C53.3,20.9 46.7,17.8 43.8,19.9C43,20.5 42.6,20.5 41,19.9C38.5,19 36.8,19 35.5,19.9C34.6,20.5 34.2,20.5 32.6,19.9C30.1,19 27.8,19 26.9,19.9C26.2,20.5 25.9,20.5 24.1,19.9C21.3,19 19.4,19 18.3,20.2ZM32.6,25.7C35.1,27.9 35.3,29.7 34.6,45.7C34.1,60.8 34.2,64.4 35.4,66.7C35.8,67.6 36,68.3 35.7,68.3C34.5,68.3 32.6,67 31.7,65.5C30.7,63.9 30.7,63.4 30.9,45.6C31,28.7 31,27.1 30.2,25.6C29.5,24.2 29.5,24 30.1,24C30.5,24.1 31.7,24.8 32.6,25.7ZM40.4,25C41.2,25.5 42.2,26.7 42.7,27.7C43.5,29.4 43.5,31 43.2,46.8C42.9,62.3 43,64.3 43.7,66C44.1,67.1 44.4,68 44.2,68.2C43.7,68.6 41.5,67.1 40.4,65.7C39.4,64.3 39.4,64 39.6,46.3C39.7,30.5 39.6,28 39,26.3C38.6,25.3 38.2,24.4 38.2,24.3C38.2,23.9 38.9,24.1 40.4,25ZM49.5,25.5C51.9,27.6 51.9,28 51.5,46.5C51.2,63.2 51.2,63.9 52.1,66.1C53,68.2 53,68.3 52.1,68.3C50.7,68.3 48.4,65.8 47.8,63.7C47.5,62.4 47.5,57.9 47.8,48.2C48.4,33.3 48.2,28.6 47.1,25.9C46.4,24.1 46.4,24.1 47.4,24.4C48.1,24.5 49,25.1 49.5,25.5Z" style="fill:rgb(255,230,204);fill-rule:nonzero;"/>
                <path d="M145.2,114.9C142.5,115.1 137.8,115.9 134.8,116.7C129.4,118.1 121.7,120.9 121.7,121.6C121.7,121.8 123.1,122.5 124.8,123.2L127.9,124.4L131.3,123.3C144,119 158.9,119 171.5,123.2C194.4,130.9 210.7,150.3 214.8,174.7L215.1,176.5L220.5,176.5L220.2,174.7C217.3,157.7 211.5,146.1 200.3,135C185.4,120.3 166.1,113.3 145.2,114.9Z" style="fill:rgb(255,230,204);fill-rule:nonzero;"/>
                <path d="M145.5,124.8C145.1,124.9 143.2,125.2 141.3,125.5C139.4,125.8 136.9,126.3 135.7,126.7L133.6,127.3L139.4,130.9L143.6,130.4C154.9,128.9 165.5,130.6 174.9,135.3C190.5,143 201.1,156.7 204.3,173.4L204.9,176.5L210.2,176.5L209.9,174.4C208.9,167.9 205.8,159.4 202.4,153.8C193.1,138.3 177.8,127.9 160.2,125.3C156.1,124.7 147.7,124.5 145.5,124.8Z" style="fill:rgb(255,230,204);fill-rule:nonzero;"/>
                <path d="M87,126.4C67.1,130.1 50.2,142.9 41.1,161C39.6,163.8 36.7,172.1 36,175.3L35.7,176.7L40.7,176.5L41.6,173.2C44.1,163.9 49.4,155.1 56.8,147.8C64.5,140 72.9,135.2 83.8,132.2C88.1,131 89.1,130.9 98.2,130.9C107.2,130.9 108.3,131 112.6,132.2C133.6,137.8 149.4,153.3 155,173.7L155.8,176.8L158.2,176.8C159.9,176.8 160.5,176.6 160.5,176.1C160.5,174.4 157.8,166.4 155.8,162.3C152.6,155.5 148.7,150 143.2,144.5C134.6,135.8 124.8,130.4 112.2,127.2C107,125.6 92.7,125.3 87,126.4Z" style="fill:rgb(255,230,204);fill-rule:nonzero;"/>
                <path d="M88,135.6C72.5,138.7 59.5,147.8 51.3,161.5C49.2,165.1 46.3,172.1 45.6,175.2C45.4,176.6 45.4,176.6 47.8,176.6L50.3,176.6L51,174C52.1,170.3 55.7,163.2 58.3,159.7C63.2,153.1 69.5,147.9 77.1,144.4C84,141.1 88.2,140.2 96.5,139.9C102.3,139.7 104.4,139.9 108.2,140.6C125.6,144.2 139.7,156.6 145.3,173.2L146.4,176.4L151.4,176.6L151.1,175.2C150.3,171.8 147.8,165.7 145.7,162.2C137.7,148.3 124.7,138.9 109.1,135.7C103.4,134.6 93.2,134.5 88,135.6Z" style="fill:rgb(255,230,204);fill-rule:nonzero;"/>
                <path d="M145,135.2C145,135.4 146.2,136.6 147.6,137.8C150.1,139.9 150.2,140 154,140.1C164.1,140.5 174.9,145.3 182.4,152.9C187.8,158.3 192.3,166.1 193.9,173L194.8,176.6L200.1,176.6L199.8,174.5C199.2,171 196.4,163.2 194.2,159.4C187.9,148.5 177.2,140.1 164.8,136.4C161.1,135.3 159.2,135.1 152.8,134.8C147.7,134.8 145,134.9 145,135.2Z" style="fill:rgb(255,230,204);fill-rule:nonzero;"/>
                <path d="M93.5,144.1C83.5,145 72.4,150.4 65.6,157.7C62,161.6 59.8,164.8 57.4,169.8C54.1,176.7 54.1,176.5 57.2,176.5L59.8,176.5L60.9,173.6C64.2,165 71.8,156.9 80.6,152.7C89.7,148.3 101.3,147.5 110.8,150.6C121.7,154.1 131.4,163 135.6,173.4L136.8,176.2L141.8,176.4L141.5,175C141,173 137.6,166 135.8,163.3C133.1,159.4 127.5,153.9 123.2,151.1C114.4,145.6 104.4,143.1 93.5,144.1Z" style="fill:rgb(255,230,204);fill-rule:nonzero;"/>
                <path d="M154.2,144.9C154.2,145 155.1,146.4 156.1,147.9C157.8,150.3 158.4,150.7 160.6,151.2C171.1,153.9 181.1,163.8 183.9,174.3L184.5,176.6L187.1,176.6C190.2,176.6 190.2,176.5 188.5,171.3C184.6,159.9 175.6,150.9 164.4,147C160.7,145.7 154.2,144.4 154.2,144.9Z" style="fill:rgb(255,230,204);fill-rule:nonzero;"/>
                <path d="M89.9,154C83.5,155.5 79.7,157.2 75.3,160.3C70.4,163.7 65.9,169.4 63.6,174.7L62.9,176.5L68,176.5L69.5,173.7C70.3,172.1 72.5,169.3 74.6,167.2C80.4,161.3 87.7,158.3 96,158.4C104.2,158.4 111.4,161.4 117.2,167C119.1,168.9 121.4,171.7 122.3,173.4L124,176.5L129,176.5L128.1,174.3C124.4,165.7 116.5,158.6 107,155.3C103.7,154.2 102.1,153.9 97,153.8C93.6,153.8 90.4,153.9 89.9,154Z" style="fill:rgb(255,230,204);fill-rule:nonzero;"/>
                <path d="M161.9,157.2C162.1,157.5 162.9,159.1 163.6,160.7C164.5,162.7 165.8,164.6 168.2,167C170.4,169.3 172,171.5 173,173.5L174.4,176.5L177,176.5C180.2,176.5 180.3,176.3 177.6,170.9C175.3,166 170.7,161.2 165.9,158.4C162.7,156.6 160.9,156.1 161.9,157.2Z" style="fill:rgb(255,230,204);fill-rule:nonzero;"/>
                <path d="M89.2,163.5C83.3,165.1 78.7,168.2 75.2,172.9C74.1,174.5 73.1,176 73.1,176.2C73.1,176.4 74.2,176.6 75.6,176.6C77.9,176.6 78.2,176.5 80,174.5C85,168.9 93.4,166.2 100.8,167.9C104.4,168.7 108.2,170.9 111.1,173.8C113.8,176.5 114,176.6 116.3,176.6C117.7,176.6 118.7,176.4 118.7,176.2C118.7,175.2 114.3,170 112,168.3C105.2,163 97.3,161.4 89.2,163.5Z" style="fill:rgb(255,230,204);fill-rule:nonzero;"/>
                <path d="M11.7,183.4C10.7,184.2 10.4,184.8 10.4,186.2C10.4,187.2 10.7,188.4 11,188.8C11.4,189.3 14,190.3 18.4,191.4C47.9,198.7 70.4,213 80.9,231.1C82,233 83.4,235.1 83.9,235.7L84.8,236.8L171.1,236.8L172,235.7C172.5,235.1 173.9,233 175,231.1C185.4,213.2 207.8,198.9 236.7,191.6C241.6,190.3 244.5,189.4 244.9,188.8C245.2,188.4 245.5,187.1 245.5,186.2C245.5,184.8 245.2,184.2 244.2,183.4L242.9,182.4L13.1,182.4L11.7,183.4Z" style="fill:rgb(140,124,115);fill-rule:nonzero;"/>
            </g>
        </g>
    </g>
    <g transform="matrix(8.31209,0,0,14.3158,-116.193,-1134.71)">
        <g transform="matrix(4.4706,0,0,4.4706,42.7552,87.3128)">
        </g>
        <text x="15.31px" y="87.313px" style="font-family:'ColonnaMT', 'Colonna MT', fantasy;font-size:4.471px;fill:rgb(198,0,72);">La Sphag<tspan x="31.948px 34.043px " y="87.313px 87.313px ">et</tspan>tata</text>
    </g>
</svg>
