<?xml version="1.0" encoding="UTF-8" standalone="no"?>
<!DOCTYPE svg PUBLIC "-//W3C//DTD SVG 1.1//EN" "http://www.w3.org/Graphics/SVG/1.1/DTD/svg11.dtd">
<svg width="100%" height="100%" viewBox="0 0 256 256" version="1.1" xmlns="http://www.w3.org/2000/svg" xmlns:xlink="http://www.w3.org/1999/xlink" xml:space="preserve" xmlns:serif="http://www.serif.com/" style="fill-rule:evenodd;clip-rule:evenodd;stroke-linejoin:round;stroke-miterlimit:2;">
    <g>
        <g>
            <g>
                <g>
                    <path d="M128,28.5C73,28.5 28.5,73 28.5,128C28.5,167.6 51.7,201.7 85.2,217.7L88.3,157.5C88.3,157.5 82.4,155.6 81.1,154.9C68.7,149.4 59.6,133.3 59.6,112.4C59.6,89.6 77.3,69.9 94.4,69.8C111.5,70 129.2,89.6 129.2,112.4C129.2,133.3 120.2,149.4 107.8,154.9C107.7,154.9 100.6,157.5 100.6,157.5L104.1,224.4C111.7,226.3 119.7,227.4 127.9,227.4C139,227.4 149.6,225.5 159.5,222.2L162.6,162.6C154.5,160.8 147.5,155.6 143.2,149.2C137.8,141.1 147.3,69.8 147.3,69.8L153.5,69.8L153.5,136.7L159.6,136.7L159.6,69.8L166.3,69.8L166.3,136.7L172.4,136.7L172.4,69.8L179.4,69.8L179.4,136.7L185.6,136.7L185.6,69.8L190.3,69.8C190.3,69.8 199.8,141.1 194.4,149.2C190.1,155.6 183.2,160.8 175.2,162.6C175.1,162.6 174.9,162.7 174.9,162.7L177.6,214C207.3,196.8 227.2,164.7 227.2,128C227.5,73 183,28.5 128,28.5Z" style="fill:rgb(235,166,0);fill-rule:nonzero;"/>
                    <path d="M74.3,102.4C74.7,101 75.1,99.6 75.2,99.5C75.3,98.9 75.1,98.4 74.5,98.1C73.9,97.8 73.2,98 72.9,98.4C72.9,98.4 72.2,99.5 71.2,101.1C70.4,102.5 69.2,104.7 68.4,107.4C67.7,109.8 66.9,113 66.5,116.6C66.3,118.5 66.3,120.2 66.4,121.9C66.5,123.9 66.8,125.6 67.4,127.5C69.4,133.1 70.9,138.4 76.3,143.8C78,145.6 79.8,146.8 81.1,147.7L81.6,148C81.9,148.2 82.1,148.3 82.4,148.5C83.5,149.1 84.2,149.3 84.3,149.3C84.8,149.4 85.4,149.2 85.6,148.7C85.8,148.2 85.6,147.7 85.2,147.3C85.2,147.3 84.6,146.8 83.8,145.8C83.2,145.2 82.7,144.3 82,143.3C81.5,142.6 80.9,141.8 80.4,141C77.8,137 76.2,131.3 74.1,125.5C73.7,124.2 73.4,122.6 73.2,121.2C73,119.6 73,118.1 73,116.6C72.9,113.3 73.1,110.5 73.4,108.1C73.5,105.7 73.8,103.7 74.3,102.4Z" style="fill:rgb(235,166,0);fill-rule:nonzero;"/>
                    <path d="M128,10C63,10 10,62.9 10,128C10,193 63,246 128,246C193.1,246 246,193 246,128C246,62.9 193.1,10 128,10ZM128,237.2C67.8,237.2 18.8,188.2 18.8,128C18.8,67.8 67.8,18.8 128,18.8C188.2,18.8 237.2,67.8 237.2,128C237.2,188.2 188.2,237.2 128,237.2Z" style="fill:rgb(235,166,0);fill-rule:nonzero;"/>
                </g>
            </g>
        </g>
    </g>
</svg>
