<?xml version="1.0" encoding="utf-8"?>
<!-- Svg Vector Icons : http://www.onlinewebfonts.com/icon -->
<!DOCTYPE svg PUBLIC "-//W3C//DTD SVG 1.1//EN" "http://www.w3.org/Graphics/SVG/1.1/DTD/svg11.dtd">
<svg version="1.1" xmlns="http://www.w3.org/2000/svg" xmlns:xlink="http://www.w3.org/1999/xlink" x="0px" y="0px" viewBox="0 0 256 256" enable-background="new 0 0 256 256" xml:space="preserve">
<metadata> Svg Vector Icons : http://www.onlinewebfonts.com/icon </metadata>
<g><g><g><path fill="#000000" d="M125.4,11l-1.3,1.1L123.9,68l-0.1,55.9L68,124l-55.8,0.1l-1.1,1.1c-1.4,1.4-1.4,4.3,0,5.7l1.1,1.1l55.8,0.1l55.9,0.1l0.1,55.9l0.1,55.8l1.1,1.1c1.4,1.4,4.3,1.4,5.7,0l1.1-1.1l0.1-55.8l0.1-55.9l55.9-0.1l55.8-0.1l1.1-1.1c1.4-1.4,1.4-4.3,0-5.7l-1.1-1.1L188,124l-55.9-0.1L132.1,68l-0.1-55.9l-1.3-1.1c-0.7-0.6-1.9-1.1-2.6-1.1C127.3,9.9,126.1,10.4,125.4,11z"/></g></g></g>
</svg>